<svg aria-hidden="true" style="position: absolute; width: 0; height: 0; overflow: hidden;" version="1.1" xmlns="http://www.w3.org/2000/svg" xmlns:xlink="http://www.w3.org/1999/xlink">
<defs>
<symbol id="icon-maintaince" viewBox="0 0 79 32">
<path fill="#fff" style="fill: var(--color1, #fff)" d="M3.402 5.907c0 0.386 0.063 0.764 0.19 1.134 0.132 0.37 0.36 0.7 0.685 0.989s0.759 0.523 1.302 0.7c0.548 0.173 1.241 0.259 2.078 0.259 0.584 0 1.109-0.043 1.576-0.129 0.472-0.086 0.875-0.183 1.21-0.289 0.391-0.122 0.736-0.261 1.035-0.419l1.499 2.185c-0.325 0.249-0.738 0.472-1.241 0.67-0.213 0.086-0.457 0.17-0.731 0.251-0.274 0.076-0.581 0.145-0.921 0.206s-0.713 0.109-1.119 0.145c-0.401 0.041-0.837 0.061-1.309 0.061-1.289 0-2.405-0.15-3.349-0.449-0.939-0.304-1.718-0.716-2.337-1.233-0.614-0.523-1.071-1.134-1.37-1.834s-0.449-1.449-0.449-2.245c0-0.797 0.15-1.545 0.449-2.245s0.756-1.309 1.37-1.827c0.619-0.523 1.398-0.934 2.337-1.233 0.944-0.304 2.060-0.457 3.349-0.457 0.472 0 0.908 0.020 1.309 0.061 0.406 0.036 0.779 0.086 1.119 0.152 0.34 0.061 0.647 0.132 0.921 0.213s0.518 0.162 0.731 0.244c0.502 0.198 0.916 0.419 1.241 0.662l-1.499 2.185c-0.299-0.152-0.644-0.292-1.035-0.419-0.335-0.101-0.738-0.195-1.21-0.282-0.467-0.091-0.992-0.137-1.576-0.137-0.837 0-1.53 0.089-2.078 0.266-0.543 0.173-0.977 0.403-1.302 0.693s-0.553 0.619-0.685 0.99c-0.127 0.37-0.19 0.748-0.19 1.134z"></path>
<path fill="#fff" style="fill: var(--color1, #fff)" d="M21.099 11.668c-1.289 0-2.405-0.15-3.349-0.449-0.939-0.304-1.718-0.716-2.337-1.233-0.614-0.523-1.071-1.134-1.37-1.834s-0.449-1.449-0.449-2.245c0-0.797 0.15-1.545 0.449-2.245s0.756-1.309 1.37-1.827c0.619-0.523 1.398-0.934 2.337-1.233 0.944-0.304 2.060-0.457 3.349-0.457s2.403 0.152 3.341 0.457c0.944 0.299 1.723 0.71 2.337 1.233 0.619 0.518 1.078 1.126 1.378 1.827s0.449 1.449 0.449 2.245-0.15 1.545-0.449 2.245c-0.3 0.7-0.759 1.312-1.378 1.834-0.614 0.518-1.393 0.929-2.337 1.233-0.939 0.299-2.053 0.449-3.341 0.449zM21.099 8.989c0.837 0 1.527-0.086 2.070-0.259 0.548-0.178 0.984-0.411 1.309-0.7s0.551-0.619 0.677-0.989c0.132-0.37 0.198-0.748 0.198-1.134s-0.066-0.764-0.198-1.134c-0.127-0.37-0.353-0.7-0.677-0.99s-0.761-0.52-1.309-0.693c-0.543-0.178-1.233-0.266-2.070-0.266s-1.53 0.089-2.078 0.266c-0.543 0.173-0.977 0.403-1.302 0.693s-0.553 0.619-0.685 0.99c-0.127 0.37-0.19 0.748-0.19 1.134s0.063 0.764 0.19 1.134c0.132 0.37 0.36 0.7 0.685 0.989s0.759 0.523 1.302 0.7c0.548 0.173 1.241 0.259 2.078 0.259z"></path>
<path fill="#fff" style="fill: var(--color1, #fff)" d="M33.346 5.221v6.143h-3.22v-10.915h4.171l3.174 6.401 3.182-6.401h4.164v10.915h-3.22v-6.143l-3.052 6.143h-2.146l-3.052-6.143z"></path>
<path fill="#fff" style="fill: var(--color1, #fff)" d="M46.72 0.449h3.22v10.915h-3.22v-10.915z"></path>
<path fill="#fff" style="fill: var(--color1, #fff)" d="M51.85 0.449h3.768l5.442 6.751v-6.751h3.22v10.915h-3.768l-5.442-6.751v6.751h-3.22v-10.915z"></path>
<path fill="#fff" style="fill: var(--color1, #fff)" d="M69.060 5.907c0 0.386 0.063 0.764 0.19 1.134 0.132 0.37 0.36 0.7 0.685 0.989s0.759 0.523 1.302 0.7c0.548 0.173 1.241 0.259 2.078 0.259 0.568 0 1.063-0.028 1.484-0.084s0.738-0.137 0.952-0.244v-1.545h-2.74v-2.382h5.678v5.419c-0.33 0.284-0.703 0.523-1.119 0.716-0.411 0.193-0.85 0.35-1.317 0.472-0.462 0.117-0.944 0.2-1.446 0.251-0.497 0.051-0.995 0.076-1.492 0.076-1.289 0-2.405-0.15-3.349-0.449-0.939-0.304-1.718-0.716-2.337-1.233-0.614-0.523-1.071-1.134-1.37-1.834s-0.449-1.449-0.449-2.245 0.15-1.545 0.449-2.245c0.299-0.7 0.756-1.309 1.37-1.827 0.619-0.523 1.398-0.934 2.337-1.233 0.944-0.304 2.060-0.457 3.349-0.457 0.472 0 0.908 0.020 1.309 0.061 0.406 0.036 0.779 0.086 1.119 0.152 0.34 0.061 0.647 0.132 0.921 0.213s0.517 0.162 0.731 0.244c0.502 0.198 0.916 0.419 1.241 0.662l-1.5 2.185c-0.299-0.152-0.644-0.292-1.035-0.419-0.335-0.101-0.738-0.195-1.21-0.282-0.467-0.091-0.992-0.137-1.576-0.137-0.837 0-1.53 0.089-2.078 0.266-0.543 0.173-0.977 0.403-1.302 0.693s-0.553 0.619-0.685 0.99c-0.127 0.37-0.19 0.748-0.19 1.134z"></path>
<path fill="#fff" style="fill: var(--color1, #fff)" d="M9.865 23.731c-0.33-0.132-0.7-0.249-1.111-0.35-0.35-0.086-0.766-0.165-1.248-0.236-0.482-0.076-1.015-0.114-1.598-0.114-0.736 0-1.307 0.058-1.713 0.175-0.401 0.112-0.601 0.312-0.601 0.601 0 0.147 0.046 0.271 0.137 0.373 0.091 0.096 0.239 0.18 0.441 0.251 0.208 0.066 0.477 0.127 0.807 0.183 0.33 0.051 0.731 0.102 1.203 0.152 1.035 0.117 1.916 0.266 2.641 0.449 0.726 0.178 1.314 0.406 1.766 0.685 0.452 0.274 0.779 0.609 0.982 1.005 0.208 0.391 0.312 0.855 0.312 1.393 0 0.654-0.155 1.21-0.464 1.667-0.304 0.452-0.731 0.819-1.279 1.103s-1.203 0.49-1.964 0.617c-0.756 0.127-1.588 0.19-2.497 0.19-0.497 0-0.962-0.018-1.393-0.053-0.426-0.035-0.82-0.084-1.18-0.145-0.355-0.056-0.68-0.122-0.974-0.198s-0.556-0.155-0.784-0.236c-0.538-0.188-0.987-0.401-1.347-0.639l1.507-2.2c0.32 0.147 0.688 0.279 1.104 0.396 0.35 0.102 0.771 0.193 1.264 0.274 0.497 0.081 1.048 0.122 1.652 0.122 0.497 0 0.939-0.013 1.324-0.038 0.386-0.030 0.71-0.079 0.974-0.145 0.264-0.071 0.464-0.162 0.601-0.274 0.137-0.117 0.206-0.264 0.206-0.441 0-0.137-0.043-0.249-0.129-0.335-0.081-0.086-0.236-0.16-0.464-0.221-0.223-0.066-0.535-0.124-0.936-0.175-0.396-0.056-0.911-0.119-1.545-0.19-1.055-0.111-1.921-0.276-2.596-0.495-0.675-0.223-1.208-0.487-1.598-0.792-0.386-0.31-0.652-0.657-0.799-1.043s-0.221-0.799-0.221-1.241c0-0.477 0.099-0.924 0.297-1.34 0.198-0.421 0.512-0.787 0.944-1.096 0.431-0.315 0.99-0.563 1.675-0.746 0.69-0.183 1.522-0.274 2.497-0.274 0.944 0 1.766 0.063 2.466 0.19 0.705 0.122 1.291 0.256 1.758 0.403 0.543 0.173 1.007 0.368 1.393 0.586l-1.507 2.2z"></path>
<path fill="#fff" style="fill: var(--color1, #fff)" d="M41.66 20.656h3.768l5.442 6.751v-6.751h3.22v10.915h-3.768l-5.442-6.752v6.752h-3.22v-10.915z"></path>
</symbol>
<symbol id="icon-flag-ua" viewBox="0 0 32 32">
<path fill="#5a9bfc" style="fill: var(--color2, #5a9bfc)" opacity="0.7" d="M3.007 6.546h10.738v1.933h-10.738v-1.933z"></path>
<path fill="#000" style="fill: var(--color3, #000)" opacity="0.26" d="M3.007 6.546h10.738v1.933h-10.738v-1.933z"></path>
<path fill="#fee355" style="fill: var(--color4, #fee355)" opacity="0.7" d="M3.007 9.016h10.738v1.933h-10.738v-1.933z"></path>
<path fill="#000" style="fill: var(--color3, #000)" opacity="0.26" d="M3.007 9.016h10.738v1.933h-10.738v-1.933z"></path>
</symbol>
<symbol id="icon-logo" viewBox="0 0 42 32">
<path fill="#fff" style="fill: var(--color1, #fff)" d="M26.674 17.514l0.845 3.153c0.247 0.923 0.221 1.899-0.076 2.809s-0.852 1.715-1.597 2.319c-0.746 0.604-1.65 0.98-2.604 1.083s-1.918-0.071-2.774-0.501c-0.526 0.801-1.273 1.433-2.152 1.821s-1.849 0.514-2.797 0.364c-0.947-0.15-1.831-0.57-2.543-1.21s-1.223-1.471-1.47-2.394l-0.297-1.108-5.444 1.459c-0.21 0.056-0.43 0.071-0.645 0.043s-0.424-0.098-0.612-0.206c-0.38-0.219-0.658-0.579-0.771-1.002s-0.053-0.874 0.167-1.253c0.22-0.38 0.582-0.657 1.007-0.77l5.444-1.459-0.726-2.709-2.242 0.601c-0.425 0.114-0.877 0.055-1.257-0.164s-0.658-0.579-0.771-1.002-0.053-0.874 0.167-1.253c0.22-0.38 0.582-0.657 1.007-0.77l2.242-0.601-1.292-4.82c-0.24-0.894 0.293-1.844 1.196-2.068 0.421-0.104 0.867-0.040 1.24 0.18s0.645 0.576 0.757 0.994l4.023 15.015c0.239 0.893 1.174 1.45 2.066 1.194 0.418-0.12 0.772-0.398 0.986-0.775s0.272-0.823 0.16-1.241l-0.854-3.189c-0.113-0.423-0.053-0.874 0.167-1.253s0.582-0.657 1.007-0.77c0.425-0.114 0.877-0.055 1.257 0.164s0.658 0.579 0.771 1.002l0.845 3.153c0.239 0.893 1.174 1.45 2.066 1.194 0.418-0.12 0.772-0.398 0.986-0.775s0.272-0.823 0.16-1.241l-0.854-3.189c-0.057-0.212-0.071-0.433-0.041-0.651s0.103-0.427 0.215-0.616c0.112-0.189 0.261-0.354 0.438-0.486s0.378-0.226 0.592-0.279c0.883-0.219 1.773 0.335 2.008 1.21z"></path>
<path fill="#fff" style="fill: var(--color1, #fff)" d="M15.577 14.53l-0.845-3.153c-0.247-0.923-0.221-1.899 0.076-2.809s0.852-1.715 1.597-2.319c0.745-0.604 1.65-0.98 2.604-1.083s1.918 0.071 2.774 0.501c0.526-0.801 1.273-1.433 2.151-1.821s1.85-0.514 2.797-0.364c0.948 0.15 1.831 0.57 2.543 1.21s1.223 1.471 1.47 2.394l0.297 1.108 5.444-1.459c0.21-0.056 0.43-0.071 0.645-0.043s0.424 0.098 0.612 0.206c0.38 0.219 0.658 0.579 0.771 1.002s0.053 0.874-0.167 1.253c-0.22 0.38-0.582 0.657-1.007 0.77l-5.444 1.459 0.726 2.709 2.242-0.601c0.425-0.114 0.877-0.055 1.257 0.164s0.658 0.579 0.771 1.002c0.113 0.423 0.053 0.874-0.167 1.253s-0.582 0.657-1.007 0.77l-2.242 0.601 1.292 4.82c0.24 0.894-0.293 1.844-1.196 2.068-0.421 0.104-0.867 0.040-1.24-0.18s-0.645-0.576-0.757-0.994l-4.023-15.015c-0.239-0.893-1.174-1.45-2.066-1.194-0.418 0.12-0.772 0.398-0.986 0.775s-0.272 0.823-0.16 1.241l0.854 3.189c0.113 0.423 0.053 0.874-0.167 1.253s-0.582 0.657-1.007 0.77c-0.425 0.114-0.877 0.055-1.257-0.164s-0.658-0.579-0.771-1.002l-0.845-3.153c-0.239-0.893-1.174-1.45-2.066-1.194-0.418 0.12-0.772 0.398-0.986 0.775s-0.272 0.823-0.16 1.241l0.854 3.189c0.057 0.212 0.071 0.433 0.041 0.651s-0.103 0.427-0.215 0.616c-0.112 0.189-0.261 0.354-0.438 0.486s-0.378 0.226-0.592 0.279c-0.883 0.219-1.773-0.335-2.008-1.21z"></path>
</symbol>
<symbol id="icon-telegram" viewBox="0 0 37 32">
<path  d="M27.576 31.088c-3.039-2.226-8.397-6.267-8.397-6.267s-2.82 2.739-4.644 4.51c-0.322 0.313-0.785 0.435-1.217 0.319-0.434-0.117-0.762-0.457-0.904-0.889-1.135-3.441-3.313-10.206-3.313-10.206s-4.66-1.52-8.211-2.612c-0.514-0.159-0.871-0.633-0.889-1.179-0.017-0.545 0.31-1.041 0.813-1.233 7.917-3.013 27.286-10.488 33.575-12.883 0.408-0.156 0.865-0.073 1.196 0.216s0.48 0.738 0.39 1.169c-1.187 5.732-4.348 21.68-5.652 27.981-0.123 0.591-0.531 1.078-1.086 1.296-0.555 0.216-1.177 0.128-1.66-0.224zM11.061 17.7l2.518 8.544 0.56-5.411c0 0 9.73-9.027 15.277-14.173 0.162-0.151 0.184-0.404 0.049-0.582-0.134-0.177-0.38-0.219-0.564-0.099-6.429 4.223-17.841 11.72-17.841 11.72z"></path>
</symbol>
<symbol id="icon-discord" viewBox="0 0 43 32">
<path   d="M36.561 3.217c-2.706-1.204-5.608-2.091-8.643-2.599-0.055-0.010-0.111 0.015-0.139 0.064-0.373 0.644-0.787 1.484-1.076 2.144-3.264-0.474-6.511-0.474-9.707 0-0.289-0.675-0.718-1.5-1.093-2.144-0.028-0.047-0.084-0.072-0.139-0.064-3.033 0.506-5.935 1.394-8.643 2.599-0.023 0.010-0.044 0.026-0.057 0.047-5.505 7.975-7.013 15.754-6.273 23.436 0.003 0.038 0.025 0.073 0.055 0.096 3.632 2.586 7.15 4.157 10.603 5.197 0.055 0.016 0.114-0.003 0.149-0.047 0.817-1.082 1.545-2.222 2.169-3.421 0.037-0.070 0.002-0.154-0.074-0.181-1.155-0.425-2.254-0.943-3.312-1.531-0.084-0.047-0.090-0.163-0.013-0.219 0.223-0.162 0.445-0.33 0.658-0.5 0.038-0.031 0.092-0.038 0.137-0.018 6.949 3.077 14.472 3.077 21.339 0 0.045-0.021 0.099-0.015 0.139 0.016 0.213 0.17 0.435 0.34 0.659 0.502 0.077 0.056 0.072 0.172-0.012 0.219-1.058 0.599-2.157 1.106-3.314 1.529-0.075 0.028-0.109 0.113-0.072 0.183 0.638 1.198 1.366 2.338 2.167 3.42 0.033 0.046 0.094 0.065 0.149 0.049 3.47-1.041 6.988-2.611 10.62-5.197 0.032-0.023 0.052-0.057 0.055-0.095 0.885-8.882-1.483-16.597-6.278-23.436-0.012-0.023-0.032-0.039-0.055-0.049zM14.805 22.023c-2.092 0-3.816-1.863-3.816-4.15s1.69-4.15 3.816-4.15c2.142 0 3.849 1.879 3.816 4.15 0 2.287-1.69 4.15-3.816 4.15zM28.914 22.023c-2.092 0-3.816-1.863-3.816-4.15s1.69-4.15 3.816-4.15c2.142 0 3.849 1.879 3.816 4.15 0 2.287-1.674 4.15-3.816 4.15z"></path>
</symbol>
<symbol id="icon-twitch" viewBox="0 0 31 32">
<path   d="M8.009 31.534v-3.718h-7.552c0-0.156 0-0.275 0-0.4 0-6.995 0-13.991 0-20.989 0.005-0.205 0.039-0.409 0.102-0.604 0.555-1.688 1.124-3.376 1.675-5.064 0.007-0.046 0.023-0.091 0.048-0.131s0.057-0.075 0.095-0.103c0.038-0.028 0.081-0.048 0.127-0.058s0.093-0.013 0.14-0.005h27.985v0.378c0 6.026 0 12.056 0 18.088 0.004 0.113-0.016 0.226-0.060 0.33s-0.11 0.198-0.193 0.274c-2.665 2.665-5.33 5.331-7.996 7.996-0.076 0.084-0.17 0.15-0.274 0.193s-0.217 0.064-0.33 0.060c-1.621 0-3.243 0-4.886 0-0.14-0.010-0.28 0.012-0.41 0.064s-0.247 0.134-0.341 0.238c-1.071 1.097-2.159 2.172-3.247 3.247-0.107 0.113-0.25 0.187-0.404 0.209-1.448 0-2.896 0-4.349 0-0.040 0.018-0.071 0.004-0.129-0.004zM5.139 3.265v19.856h6.614v3.762l0.218-0.204c1.115-1.111 2.221-2.221 3.345-3.341 0.068-0.075 0.151-0.134 0.244-0.173s0.193-0.057 0.294-0.054c2.316 0 4.629 0 6.939 0 0.187-0.007 0.365-0.081 0.502-0.209 1.444-1.421 2.87-2.861 4.309-4.287 0.074-0.068 0.131-0.151 0.169-0.244s0.054-0.193 0.049-0.293c0-4.824 0-9.647 0-14.468v-0.342l-22.681-0.004z"></path>
</symbol>
<symbol id="icon-webforces" viewBox="0 0 357 32">
<path fill="#fff" style="fill: var(--color1, #fff)" d="M23.611 14.137l-5.785 15.259h-6.267l-9.734-26.588h7.379l5.803 16.094 6.1-16.094h5.006l6.1 16.094 5.803-16.094h7.379l-9.734 26.588h-6.267l-5.785-15.259z"></path>
<path fill="#fff" style="fill: var(--color1, #fff)" d="M76.618 13.136v5.711h-18.967v4.524h20.080v6.026h-27.088v-26.588h26.792v6.026h-19.783v4.302h18.967z"></path>
<path fill="#fff" style="fill: var(--color1, #fff)" d="M84.292 29.396v-26.588h17.67c1.409 0 2.645 0.111 3.708 0.334 1.063 0.21 1.978 0.501 2.744 0.871 0.767 0.358 1.403 0.779 1.91 1.261s0.908 0.995 1.205 1.539c0.297 0.544 0.507 1.106 0.63 1.687 0.124 0.569 0.185 1.119 0.185 1.65 0 0.655-0.105 1.279-0.315 1.873-0.21 0.581-0.513 1.112-0.909 1.595-0.383 0.482-0.847 0.896-1.391 1.242s-1.156 0.606-1.836 0.779c0.791 0.198 1.508 0.47 2.151 0.816 0.655 0.334 1.211 0.748 1.669 1.242s0.81 1.063 1.057 1.706c0.247 0.643 0.371 1.366 0.371 2.169 0 0.964-0.161 1.916-0.482 2.855-0.321 0.927-0.89 1.762-1.706 2.503-0.803 0.742-1.898 1.341-3.282 1.799-1.372 0.445-3.121 0.667-5.247 0.667h-18.133zM101.888 23.741c1.446 0 2.484-0.216 3.115-0.649 0.63-0.445 0.945-1.131 0.945-2.058s-0.315-1.607-0.945-2.040c-0.63-0.445-1.663-0.667-3.096-0.667h-10.606v5.414h10.587zM101.721 13.47c0.655 0 1.199-0.068 1.632-0.204 0.445-0.136 0.797-0.321 1.057-0.556 0.272-0.235 0.463-0.507 0.575-0.816s0.167-0.643 0.167-1.001c0-0.346-0.056-0.667-0.167-0.964-0.111-0.309-0.297-0.569-0.556-0.779s-0.612-0.377-1.057-0.501c-0.433-0.124-0.977-0.185-1.632-0.185h-10.439v5.006h10.42z"></path>
<path fill="#fff" style="fill: var(--color1, #fff)" d="M122.688 21.776c0.569 0.445 1.273 0.834 2.114 1.168 0.717 0.297 1.613 0.569 2.689 0.816 1.075 0.235 2.342 0.352 3.801 0.352 1.075 0 2.009-0.068 2.8-0.204s1.44-0.321 1.947-0.556c0.519-0.247 0.902-0.538 1.15-0.871s0.371-0.698 0.371-1.094c0-0.556-0.185-1.001-0.556-1.335s-0.952-0.587-1.743-0.76c-0.791-0.185-1.811-0.303-3.059-0.352-1.236-0.062-2.726-0.093-4.468-0.093v-6.026c1.471 0 2.769-0.025 3.894-0.074 1.137-0.062 2.089-0.179 2.855-0.352 0.766-0.185 1.347-0.445 1.743-0.779 0.396-0.346 0.593-0.803 0.593-1.372 0-0.321-0.099-0.612-0.297-0.871-0.185-0.272-0.501-0.501-0.945-0.686-0.433-0.185-1.001-0.328-1.706-0.426-0.704-0.111-1.564-0.167-2.577-0.167-1.224 0-2.305 0.117-3.245 0.352-0.939 0.222-1.737 0.476-2.392 0.76-0.767 0.321-1.428 0.686-1.984 1.094l-4.765-3.986c0.902-0.791 1.965-1.496 3.189-2.114 0.519-0.26 1.1-0.519 1.743-0.779 0.655-0.26 1.366-0.488 2.132-0.686s1.595-0.358 2.485-0.482c0.89-0.124 1.836-0.185 2.837-0.185 1.805 0 3.473 0.142 5.006 0.426 1.533 0.272 2.855 0.717 3.968 1.335s1.984 1.428 2.614 2.429c0.63 0.989 0.945 2.194 0.945 3.616 0 0.729-0.111 1.391-0.334 1.984-0.21 0.593-0.495 1.131-0.853 1.613-0.359 0.47-0.773 0.884-1.242 1.242-0.457 0.346-0.933 0.637-1.428 0.871 0.544 0.173 1.088 0.426 1.632 0.76 0.556 0.334 1.051 0.754 1.483 1.261 0.445 0.507 0.803 1.106 1.075 1.798s0.408 1.477 0.408 2.355c0 1.372-0.315 2.59-0.945 3.653-0.618 1.051-1.508 1.935-2.67 2.651-1.15 0.704-2.546 1.23-4.19 1.576-1.631 0.358-3.455 0.525-5.47 0.5-1.224 0-2.355-0.062-3.393-0.185-1.026-0.124-1.965-0.29-2.818-0.501-0.853-0.198-1.626-0.426-2.318-0.686-0.68-0.259-1.279-0.525-1.798-0.797-1.236-0.63-2.231-1.354-2.985-2.169l4.709-4.023z"></path>
<path fill="#fff" style="fill: var(--color1, #fff)" d="M176.715 13.618v5.711h-18.967v10.068h-7.008v-26.588h26.792v6.026h-19.783v4.784h18.967z"></path>
<path fill="#fff" style="fill: var(--color1, #fff)" d="M183.35 16.103c0-1.298 0.167-2.546 0.501-3.745s0.834-2.318 1.502-3.356c0.668-1.038 1.502-1.984 2.503-2.837s2.169-1.582 3.504-2.188c1.335-0.606 2.837-1.075 4.505-1.409s3.504-0.501 5.507-0.501c2.002 0 3.838 0.167 5.507 0.501s3.17 0.803 4.506 1.409c1.335 0.606 2.503 1.335 3.504 2.188s1.836 1.798 2.503 2.837c0.668 1.038 1.168 2.157 1.502 3.356s0.501 2.447 0.501 3.745c0 1.953-0.377 3.782-1.131 5.488-0.741 1.693-1.866 3.177-3.374 4.45-1.496 1.273-3.375 2.274-5.637 3.004-2.25 0.729-4.876 1.094-7.88 1.094s-5.636-0.365-7.899-1.094c-2.25-0.729-4.128-1.73-5.636-3.004-1.496-1.273-2.62-2.756-3.374-4.45-0.742-1.706-1.113-3.535-1.113-5.488zM190.544 16.103c0 1.051 0.192 2.058 0.575 3.022s1.001 1.817 1.854 2.559 1.965 1.335 3.337 1.78c1.384 0.433 3.071 0.649 5.062 0.649s3.671-0.216 5.043-0.649c1.384-0.445 2.503-1.038 3.356-1.78s1.471-1.595 1.854-2.559c0.383-0.964 0.575-1.972 0.575-3.022s-0.192-2.058-0.575-3.022c-0.383-0.964-1.001-1.817-1.854-2.559s-1.972-1.329-3.356-1.761c-1.372-0.445-3.053-0.667-5.043-0.667s-3.677 0.223-5.062 0.667c-1.372 0.433-2.484 1.020-3.337 1.761s-1.471 1.595-1.854 2.559c-0.383 0.964-0.575 1.972-0.575 3.022z"></path>
<path fill="#fff" style="fill: var(--color1, #fff)" d="M225.566 29.396v-26.588h17.187c1.743 0 3.319 0.173 4.727 0.519 1.423 0.346 2.626 0.89 3.616 1.632s1.75 1.687 2.282 2.837c0.544 1.15 0.815 2.528 0.815 4.135 0 1.063-0.148 1.996-0.446 2.8-0.283 0.803-0.672 1.502-1.167 2.095s-1.071 1.094-1.726 1.502c-0.642 0.396-1.317 0.723-2.021 0.983l5.785 10.086h-7.86l-5.137-8.937h-9.048v8.937h-7.008zM232.575 8.835v6.193h10.179c1.446 0 2.515-0.229 3.208-0.686 0.692-0.47 1.040-1.273 1.040-2.41s-0.347-1.934-1.040-2.392c-0.692-0.47-1.761-0.705-3.208-0.705h-10.179z"></path>
<path fill="#fff" style="fill: var(--color1, #fff)" d="M267.262 16.103c0 1.051 0.192 2.058 0.576 3.022s1.002 1.817 1.854 2.559c0.854 0.742 1.967 1.335 3.338 1.78 1.383 0.433 3.072 0.649 5.061 0.649 1.386 0 2.634-0.105 3.746-0.315s2.070-0.445 2.873-0.705c0.928-0.309 1.755-0.655 2.486-1.038l3.392 4.895c-0.839 0.593-1.873 1.125-3.097 1.595-0.519 0.198-1.105 0.395-1.76 0.593-0.645 0.185-1.361 0.352-2.151 0.501-0.778 0.148-1.625 0.266-2.54 0.352-0.916 0.099-1.898 0.148-2.949 0.148-3.003 0-5.637-0.365-7.897-1.094-2.25-0.729-4.13-1.73-5.637-3.004-1.497-1.273-2.622-2.756-3.375-4.45-0.741-1.706-1.113-3.535-1.113-5.488 0-1.298 0.167-2.546 0.5-3.745 0.335-1.199 0.834-2.318 1.502-3.356 0.67-1.038 1.502-1.984 2.503-2.837s2.171-1.582 3.505-2.188c1.334-0.606 2.836-1.075 4.505-1.409s3.505-0.501 5.506-0.501c1.051 0 2.033 0.049 2.949 0.148 0.916 0.087 1.762 0.204 2.54 0.352 0.79 0.148 1.506 0.321 2.151 0.519 0.655 0.185 1.241 0.377 1.76 0.575 1.223 0.47 2.257 1.001 3.097 1.595l-3.392 4.895c-0.731-0.371-1.558-0.711-2.486-1.020-0.802-0.26-1.76-0.494-2.873-0.705-1.113-0.222-2.361-0.334-3.746-0.334-1.989 0-3.678 0.223-5.061 0.667-1.371 0.433-2.484 1.020-3.338 1.761-0.852 0.742-1.47 1.595-1.854 2.559s-0.576 1.972-0.576 3.022z"></path>
<path fill="#fff" style="fill: var(--color1, #fff)" d="M322.366 13.136v5.711h-18.969v4.524h20.079v6.026h-27.087v-26.588h26.791v6.026h-19.783v4.302h18.969z"></path>
<path fill="#fff" style="fill: var(--color1, #fff)" d="M352.529 9.78c-0.805-0.309-1.701-0.587-2.688-0.834-0.854-0.21-1.868-0.402-3.042-0.575-1.162-0.185-2.447-0.278-3.855-0.278-2.114 0-3.66 0.167-4.638 0.501-0.975 0.334-1.465 0.896-1.465 1.687 0 0.445 0.15 0.816 0.446 1.112 0.31 0.297 0.748 0.55 1.317 0.76 0.569 0.198 1.268 0.371 2.095 0.519 0.83 0.136 1.775 0.278 2.838 0.426 2.545 0.358 4.672 0.773 6.378 1.242 1.718 0.47 3.097 1.038 4.133 1.706 1.039 0.668 1.775 1.459 2.208 2.373 0.443 0.902 0.667 1.972 0.667 3.208 0 2.929-1.199 5.080-3.596 6.452-2.388 1.372-5.972 2.058-10.754 2.058-1.199 0-2.311-0.049-3.338-0.148-1.026-0.087-1.972-0.204-2.836-0.352-0.866-0.148-1.652-0.315-2.356-0.501-0.704-0.198-1.334-0.396-1.89-0.593-1.312-0.47-2.385-1.001-3.227-1.595l3.375-4.895c0.802 0.383 1.718 0.729 2.745 1.038 0.876 0.26 1.915 0.494 3.114 0.705 1.211 0.21 2.56 0.315 4.042 0.315 1.088 0 2.102-0.031 3.042-0.093 0.95-0.062 1.767-0.185 2.447-0.371 0.692-0.185 1.236-0.439 1.632-0.76 0.394-0.321 0.593-0.742 0.593-1.261 0-0.445-0.143-0.791-0.428-1.038-0.283-0.26-0.741-0.476-1.371-0.649-0.618-0.185-1.415-0.346-2.393-0.482-0.975-0.136-2.156-0.309-3.54-0.519-2.324-0.371-4.278-0.797-5.861-1.279-1.568-0.494-2.836-1.075-3.801-1.743-0.962-0.68-1.657-1.465-2.075-2.355-0.409-0.89-0.613-1.922-0.613-3.096 0-1.187 0.224-2.293 0.667-3.319 0.446-1.026 1.169-1.91 2.171-2.651 1.012-0.754 2.329-1.347 3.948-1.78s3.604-0.649 5.952-0.649c1.174 0 2.262 0.043 3.264 0.13 0.999 0.074 1.92 0.179 2.762 0.315 0.852 0.124 1.62 0.272 2.299 0.445 0.692 0.173 1.31 0.346 1.854 0.519 1.26 0.408 2.311 0.878 3.153 1.409l-3.375 4.895z"></path>
</symbol>
<symbol id="icon-twitter" viewBox="0 0 39 32">
<path  d="M37.89 4.237c-0.609 0.267-1.235 0.493-1.875 0.676 0.757-0.847 1.335-1.844 1.688-2.934 0.079-0.244-0.003-0.512-0.206-0.672s-0.485-0.179-0.709-0.048c-1.359 0.797-2.825 1.369-4.362 1.704-1.548-1.496-3.651-2.347-5.825-2.347-4.589 0-8.323 3.692-8.323 8.229 0 0.357 0.023 0.713 0.068 1.063-5.695-0.494-10.989-3.262-14.624-7.671-0.13-0.157-0.329-0.242-0.534-0.226s-0.388 0.13-0.491 0.305c-0.737 1.251-1.127 2.682-1.127 4.138 0 1.983 0.716 3.864 1.981 5.334-0.385-0.132-0.758-0.296-1.114-0.492-0.191-0.105-0.425-0.104-0.615 0.004s-0.309 0.306-0.314 0.522c-0.001 0.036-0.001 0.073-0.001 0.11 0 2.96 1.611 5.624 4.074 7.077-0.212-0.021-0.423-0.051-0.633-0.091-0.217-0.041-0.439 0.034-0.585 0.197s-0.195 0.391-0.127 0.599c0.912 2.814 3.259 4.885 6.097 5.516-2.354 1.457-5.045 2.221-7.87 2.221-0.59 0-1.182-0.034-1.763-0.102-0.288-0.034-0.564 0.134-0.662 0.406s0.006 0.574 0.251 0.729c3.63 2.301 7.827 3.517 12.137 3.517 8.473 0 13.774-3.951 16.729-7.265 3.684-4.133 5.797-9.603 5.797-15.008 0-0.226-0.003-0.454-0.010-0.681 1.454-1.083 2.705-2.393 3.723-3.9 0.155-0.229 0.138-0.531-0.041-0.742s-0.477-0.279-0.732-0.167z"></path>
</symbol>

<symbol id="gear" viewBox="0 0 93 93">
    <path d="M80.7223 73.3016C78.0399 70.6141 77.3099 66.8454 78.8176 64.1702C80.3257 61.4941 83.8554 60.2948 87.5437 61.1977C88.7068 61.5171 89.9902 60.7297 90.4368 59.6382C91.9308 54.6038 92.6432 49.4665 92.4496 44.1523C92.3153 42.9008 91.3842 41.8725 90.0773 41.8082C85.4329 41.7085 81.7704 38.9734 81.3669 35.22C81.1144 32.3913 83.0208 29.6048 86.0409 28.1172C86.7101 27.8233 87.1247 27.3848 87.2846 26.8039C87.4445 26.223 87.4769 25.5691 87.1822 24.8994C84.6686 20.1256 81.4143 15.7725 77.2733 12.0969C76.8357 11.6828 76.1268 11.4508 75.6009 11.4905C74.9479 11.4586 74.4058 11.8241 73.9903 12.2621C71.2155 15.3988 67.303 16.3836 64.3721 14.7318C61.4419 13.0804 60.4568 9.168 61.6314 5.29696C61.7914 4.71608 61.8238 4.06218 61.4574 3.5196C61.0919 2.97753 60.6534 2.56293 60.0725 2.40302C54.9112 0.837432 49.5742 0.179825 44.0605 0.430025C43.4075 0.398095 42.8654 0.763603 42.3783 1.32872C41.9642 1.76635 41.7321 2.47521 41.8268 3.20071C42.1746 6.75396 40.7782 9.82795 38.1555 11.205C34.7365 12.8042 30.2448 10.9437 27.9535 6.96608C27.2211 5.88231 25.9314 5.49037 24.7913 6.02359C20.1444 8.60869 15.9912 11.8083 12.3867 15.8206C11.4855 16.8233 11.5482 18.2018 12.5509 19.1031C15.4884 21.9343 16.3453 25.7746 14.7656 28.5776C13.1859 31.3807 9.40043 32.4373 5.78445 31.4064C4.4942 31.0153 3.21085 31.8027 2.89136 32.9659C1.32577 38.1273 0.739713 43.3373 0.934918 48.6512C1.06928 49.9026 2.00037 50.9309 3.37884 50.8682C7.96817 50.7683 11.8855 53.6481 12.2886 57.4001C12.5411 60.2287 10.6346 63.0152 7.41493 64.558C6.74576 64.8519 6.33117 65.2904 6.09915 65.9992C5.93923 66.5801 5.9068 67.234 6.20157 67.9037C8.84321 72.7497 12.1697 76.9747 16.3091 80.6509L16.6913 80.8663C17.5836 81.3691 18.8341 81.2343 19.5916 80.4866C22.3507 77.677 26.0636 76.7471 28.8667 78.3268L28.9938 78.3984C31.6698 79.9066 32.7975 83.5633 31.8947 87.2515C31.5753 88.4147 32.291 89.8251 33.4542 90.1446C38.6156 91.7102 43.9525 92.3678 49.4099 91.9186C50.063 91.9505 50.605 91.585 51.0205 91.147C51.4346 90.7094 51.6666 90.0005 51.4999 89.403C51.2077 86.0483 52.6049 82.9748 55.1553 81.7261C58.4472 80.0552 62.8118 81.8441 65.1744 85.6933C65.9068 86.777 67.1965 87.169 68.4082 86.5087C73.055 83.9236 77.2798 80.597 80.8128 76.7117C81.5888 75.636 81.5986 74.1309 80.7224 73.3023L80.7223 73.3016ZM40.3591 57.9398C33.8614 54.2779 31.5815 46.1096 35.2434 39.6119C38.9053 33.1141 47.0736 30.8342 53.5713 34.4961C60.0691 38.1581 62.349 46.3263 58.6871 52.8241C55.0248 59.3225 46.7297 61.5301 40.3591 57.9398Z" fill="white"/>
</symbol>

</defs>
</svg>
